<svg width="261" height="61" viewBox="0 0 261 61" fill="none" xmlns="http://www.w3.org/2000/svg">
<path d="M0.5 30.5C0.5 21.1812 0.5 16.5218 2.02241 12.8463C4.05229 7.94577 7.94577 4.05229 12.8463 2.02241C16.5218 0.5 21.1812 0.5 30.5 0.5H230.5C239.819 0.5 244.478 0.5 248.154 2.02241C253.054 4.05229 256.948 7.94577 258.978 12.8463C260.5 16.5218 260.5 21.1812 260.5 30.5C260.5 39.8188 260.5 44.4782 258.978 48.1537C256.948 53.0542 253.054 56.9477 248.154 58.9776C244.478 60.5 239.819 60.5 230.5 60.5H30.5C21.1812 60.5 16.5218 60.5 12.8463 58.9776C7.94577 56.9477 4.05229 53.0542 2.02241 48.1537C0.5 44.4782 0.5 39.8188 0.5 30.5Z" fill="#009379"/>
<path d="M79.2003 28.692C78.9443 28.2227 78.5923 27.8653 78.1443 27.62C77.6963 27.3747 77.1736 27.252 76.5763 27.252C75.915 27.252 75.3283 27.4013 74.8163 27.7C74.3043 27.9987 73.9043 28.4253 73.6163 28.98C73.3283 29.5347 73.1843 30.1747 73.1843 30.9C73.1843 31.6467 73.3283 32.2973 73.6163 32.852C73.915 33.4067 74.3256 33.8333 74.8483 34.132C75.371 34.4307 75.979 34.58 76.6723 34.58C77.5256 34.58 78.2243 34.356 78.7683 33.908C79.3123 33.4493 79.6696 32.8147 79.8403 32.004H76.0003V30.292H82.0483V32.244C81.899 33.0227 81.579 33.7427 81.0883 34.404C80.5976 35.0653 79.963 35.5987 79.1843 36.004C78.4163 36.3987 77.5523 36.596 76.5923 36.596C75.515 36.596 74.539 36.356 73.6643 35.876C72.8003 35.3853 72.1176 34.708 71.6163 33.844C71.1256 32.98 70.8803 31.9987 70.8803 30.9C70.8803 29.8013 71.1256 28.82 71.6163 27.956C72.1176 27.0813 72.8003 26.404 73.6643 25.924C74.539 25.4333 75.5096 25.188 76.5763 25.188C77.835 25.188 78.9283 25.4973 79.8563 26.116C80.7843 26.724 81.4243 27.5827 81.7763 28.692H79.2003ZM91.9456 31.876C91.9456 32.196 91.9242 32.484 91.8816 32.74H85.4016C85.4549 33.38 85.6789 33.8813 86.0736 34.244C86.4682 34.6067 86.9536 34.788 87.5296 34.788C88.3616 34.788 88.9536 34.4307 89.3056 33.716H91.7216C91.4656 34.5693 90.9749 35.2733 90.2496 35.828C89.5242 36.372 88.6336 36.644 87.5776 36.644C86.7242 36.644 85.9562 36.4573 85.2736 36.084C84.6016 35.7 84.0736 35.1613 83.6896 34.468C83.3162 33.7747 83.1296 32.9747 83.1296 32.068C83.1296 31.1507 83.3162 30.3453 83.6896 29.652C84.0629 28.9587 84.5856 28.4253 85.2576 28.052C85.9296 27.6787 86.7029 27.492 87.5776 27.492C88.4202 27.492 89.1722 27.6733 89.8336 28.036C90.5056 28.3987 91.0229 28.916 91.3856 29.588C91.7589 30.2493 91.9456 31.012 91.9456 31.876ZM89.6256 31.236C89.6149 30.66 89.4069 30.2013 89.0016 29.86C88.5962 29.508 88.1002 29.332 87.5136 29.332C86.9589 29.332 86.4896 29.5027 86.1056 29.844C85.7322 30.1747 85.5029 30.6387 85.4176 31.236H89.6256ZM96.1886 29.476V33.764C96.1886 34.0627 96.2579 34.2813 96.3966 34.42C96.5459 34.548 96.7912 34.612 97.1326 34.612H98.1726V36.5H96.7646C94.8766 36.5 93.9326 35.5827 93.9326 33.748V29.476H92.8766V27.636H93.9326V25.444H96.1886V27.636H98.1726V29.476H96.1886ZM107.452 36.612C106.674 36.612 105.97 36.4787 105.34 36.212C104.722 35.9453 104.231 35.5613 103.868 35.06C103.506 34.5587 103.319 33.9667 103.308 33.284H105.708C105.74 33.7427 105.9 34.1053 106.188 34.372C106.487 34.6387 106.892 34.772 107.404 34.772C107.927 34.772 108.338 34.6493 108.636 34.404C108.935 34.148 109.084 33.8173 109.084 33.412C109.084 33.0813 108.983 32.8093 108.78 32.596C108.578 32.3827 108.322 32.2173 108.012 32.1C107.714 31.972 107.298 31.8333 106.764 31.684C106.039 31.4707 105.447 31.2627 104.988 31.06C104.54 30.8467 104.151 30.532 103.82 30.116C103.5 29.6893 103.34 29.124 103.34 28.42C103.34 27.7587 103.506 27.1827 103.836 26.692C104.167 26.2013 104.631 25.828 105.228 25.572C105.826 25.3053 106.508 25.172 107.276 25.172C108.428 25.172 109.362 25.4547 110.076 26.02C110.802 26.5747 111.202 27.3533 111.276 28.356H108.812C108.791 27.972 108.626 27.6573 108.316 27.412C108.018 27.156 107.618 27.028 107.116 27.028C106.679 27.028 106.327 27.14 106.06 27.364C105.804 27.588 105.676 27.9133 105.676 28.34C105.676 28.6387 105.772 28.8893 105.964 29.092C106.167 29.284 106.412 29.444 106.7 29.572C106.999 29.6893 107.415 29.828 107.948 29.988C108.674 30.2013 109.266 30.4147 109.724 30.628C110.183 30.8413 110.578 31.1613 110.908 31.588C111.239 32.0147 111.404 32.5747 111.404 33.268C111.404 33.8653 111.25 34.42 110.94 34.932C110.631 35.444 110.178 35.8547 109.58 36.164C108.983 36.4627 108.274 36.612 107.452 36.612ZM115.954 29.476V33.764C115.954 34.0627 116.024 34.2813 116.162 34.42C116.312 34.548 116.557 34.612 116.898 34.612H117.938V36.5H116.53C114.642 36.5 113.698 35.5827 113.698 33.748V29.476H112.642V27.636H113.698V25.444H115.954V27.636H117.938V29.476H115.954ZM118.973 32.036C118.973 31.14 119.149 30.3453 119.501 29.652C119.864 28.9587 120.349 28.4253 120.957 28.052C121.576 27.6787 122.264 27.492 123.021 27.492C123.683 27.492 124.259 27.6253 124.749 27.892C125.251 28.1587 125.651 28.4947 125.949 28.9V27.636H128.205V36.5H125.949V35.204C125.661 35.62 125.261 35.9667 124.749 36.244C124.248 36.5107 123.667 36.644 123.005 36.644C122.259 36.644 121.576 36.452 120.957 36.068C120.349 35.684 119.864 35.1453 119.501 34.452C119.149 33.748 118.973 32.9427 118.973 32.036ZM125.949 32.068C125.949 31.524 125.843 31.06 125.629 30.676C125.416 30.2813 125.128 29.9827 124.765 29.78C124.403 29.5667 124.013 29.46 123.597 29.46C123.181 29.46 122.797 29.5613 122.445 29.764C122.093 29.9667 121.805 30.2653 121.581 30.66C121.368 31.044 121.261 31.5027 121.261 32.036C121.261 32.5693 121.368 33.0387 121.581 33.444C121.805 33.8387 122.093 34.1427 122.445 34.356C122.808 34.5693 123.192 34.676 123.597 34.676C124.013 34.676 124.403 34.5747 124.765 34.372C125.128 34.1587 125.416 33.86 125.629 33.476C125.843 33.0813 125.949 32.612 125.949 32.068ZM132.633 29.012C132.921 28.5427 133.294 28.1747 133.753 27.908C134.222 27.6413 134.756 27.508 135.353 27.508V29.86H134.761C134.057 29.86 133.524 30.0253 133.161 30.356C132.809 30.6867 132.633 31.2627 132.633 32.084V36.5H130.393V27.636H132.633V29.012ZM139.47 29.476V33.764C139.47 34.0627 139.539 34.2813 139.678 34.42C139.827 34.548 140.072 34.612 140.414 34.612H141.454V36.5H140.046C138.158 36.5 137.214 35.5827 137.214 33.748V29.476H136.158V27.636H137.214V25.444H139.47V27.636H141.454V29.476H139.47ZM151.305 31.876C151.305 32.196 151.284 32.484 151.241 32.74H144.761C144.814 33.38 145.038 33.8813 145.433 34.244C145.828 34.6067 146.313 34.788 146.889 34.788C147.721 34.788 148.313 34.4307 148.665 33.716H151.081C150.825 34.5693 150.334 35.2733 149.609 35.828C148.884 36.372 147.993 36.644 146.937 36.644C146.084 36.644 145.316 36.4573 144.633 36.084C143.961 35.7 143.433 35.1613 143.049 34.468C142.676 33.7747 142.489 32.9747 142.489 32.068C142.489 31.1507 142.676 30.3453 143.049 29.652C143.422 28.9587 143.945 28.4253 144.617 28.052C145.289 27.6787 146.062 27.492 146.937 27.492C147.78 27.492 148.532 27.6733 149.193 28.036C149.865 28.3987 150.382 28.916 150.745 29.588C151.118 30.2493 151.305 31.012 151.305 31.876ZM148.985 31.236C148.974 30.66 148.766 30.2013 148.361 29.86C147.956 29.508 147.46 29.332 146.873 29.332C146.318 29.332 145.849 29.5027 145.465 29.844C145.092 30.1747 144.862 30.6387 144.777 31.236H148.985ZM152.364 32.036C152.364 31.14 152.54 30.3453 152.892 29.652C153.255 28.9587 153.745 28.4253 154.364 28.052C154.983 27.6787 155.671 27.492 156.428 27.492C157.004 27.492 157.553 27.62 158.076 27.876C158.599 28.1213 159.015 28.452 159.324 28.868V24.66H161.596V36.5H159.324V35.188C159.047 35.6253 158.657 35.9773 158.156 36.244C157.655 36.5107 157.073 36.644 156.412 36.644C155.665 36.644 154.983 36.452 154.364 36.068C153.745 35.684 153.255 35.1453 152.892 34.452C152.54 33.748 152.364 32.9427 152.364 32.036ZM159.34 32.068C159.34 31.524 159.233 31.06 159.02 30.676C158.807 30.2813 158.519 29.9827 158.156 29.78C157.793 29.5667 157.404 29.46 156.988 29.46C156.572 29.46 156.188 29.5613 155.836 29.764C155.484 29.9667 155.196 30.2653 154.972 30.66C154.759 31.044 154.652 31.5027 154.652 32.036C154.652 32.5693 154.759 33.0387 154.972 33.444C155.196 33.8387 155.484 34.1427 155.836 34.356C156.199 34.5693 156.583 34.676 156.988 34.676C157.404 34.676 157.793 34.5747 158.156 34.372C158.519 34.1587 158.807 33.86 159.02 33.476C159.233 33.0813 159.34 32.612 159.34 32.068Z" fill="white"/>
<path d="M174.125 30.5H187.875" stroke="#F8F9FF" stroke-width="1.66667" stroke-linecap="round" stroke-linejoin="round"/>
<path d="M182.25 24.875L187.875 30.5L182.25 36.125" stroke="#F8F9FF" stroke-width="1.66667" stroke-linecap="round" stroke-linejoin="round"/>
</svg>
