<svg width="118" height="31" viewBox="0 0 118 31" fill="none" xmlns="http://www.w3.org/2000/svg">
<path d="M1.17431 10.1478V21.3158H7.09431V19.5398H3.41431V10.1478H1.17431ZM12.3261 14.1478C13.4781 14.1478 14.4061 14.8838 14.4381 16.0518H10.2301C10.4061 14.8358 11.2541 14.1478 12.3261 14.1478ZM16.5341 18.5318H14.1181C13.8301 19.1238 13.3021 19.6038 12.3421 19.6038C11.2221 19.6038 10.3261 18.8678 10.2141 17.5558H16.6941C16.7421 17.2678 16.7581 16.9798 16.7581 16.6918C16.7581 14.0518 14.9501 12.3078 12.3901 12.3078C9.76606 12.3078 7.94206 14.0838 7.94206 16.8838C7.94206 19.6678 9.81406 21.4598 12.3901 21.4598C14.5821 21.4598 16.0541 20.1638 16.5341 18.5318ZM17.8171 16.8518C17.8171 19.6198 19.6091 21.4598 21.8491 21.4598C23.2571 21.4598 24.2651 20.7878 24.7931 20.0198V21.3158H27.0491V12.4518H24.7931V13.7158C24.2651 12.9798 23.2891 12.3078 21.8651 12.3078C19.6091 12.3078 17.8171 14.0838 17.8171 16.8518ZM24.7931 16.8838C24.7931 18.5638 23.6731 19.4918 22.4411 19.4918C21.2411 19.4918 20.1051 18.5318 20.1051 16.8518C20.1051 15.1718 21.2411 14.2758 22.4411 14.2758C23.6731 14.2758 24.7931 15.2038 24.7931 16.8838ZM31.4768 16.8998C31.4768 15.1878 32.2768 14.6758 33.6048 14.6758H34.1968V12.3238C32.9648 12.3238 32.0368 12.9158 31.4768 13.8278V12.4518H29.2368V21.3158H31.4768V16.8998ZM41.9136 21.3158H44.1536V16.1158C44.1536 13.6678 42.6816 12.3238 40.6176 12.3238C39.4816 12.3238 38.5216 12.8038 37.9456 13.5558V12.4518H35.7056V21.3158H37.9456V16.4198C37.9456 14.9958 38.7296 14.2278 39.9456 14.2278C41.1296 14.2278 41.9136 14.9958 41.9136 16.4198V21.3158ZM50.0962 21.3158H52.3362V14.0518L55.3442 21.3158H57.0402L60.0322 14.0518V21.3158H62.2722V10.1478H59.7442L56.1922 18.4518L52.6402 10.1478H50.0962V21.3158ZM73.0468 16.8838C73.0468 14.0838 71.0468 12.3078 68.4868 12.3078C65.9268 12.3078 63.9268 14.0838 63.9268 16.8838C63.9268 19.6678 65.8628 21.4598 68.4228 21.4598C70.9988 21.4598 73.0468 19.6678 73.0468 16.8838ZM66.1988 16.8838C66.1988 15.1078 67.2708 14.2598 68.4548 14.2598C69.6388 14.2598 70.7428 15.1078 70.7428 16.8838C70.7428 18.6438 69.6068 19.5078 68.4228 19.5078C67.2228 19.5078 66.1988 18.6438 66.1988 16.8838ZM76.9299 16.8998C76.9299 15.1878 77.7299 14.6758 79.0579 14.6758H79.6499V12.3238C78.4179 12.3238 77.4899 12.9158 76.9299 13.8278V12.4518H74.6899V21.3158H76.9299V16.8998ZM84.9667 14.1478C86.1187 14.1478 87.0467 14.8838 87.0787 16.0518H82.8707C83.0467 14.8358 83.8947 14.1478 84.9667 14.1478ZM89.1747 18.5318H86.7587C86.4707 19.1238 85.9427 19.6038 84.9827 19.6038C83.8627 19.6038 82.9667 18.8678 82.8547 17.5558H89.3347C89.3827 17.2678 89.3987 16.9798 89.3987 16.6918C89.3987 14.0518 87.5907 12.3078 85.0307 12.3078C82.4067 12.3078 80.5827 14.0838 80.5827 16.8838C80.5827 19.6678 82.4547 21.4598 85.0307 21.4598C87.2227 21.4598 88.6947 20.1638 89.1747 18.5318Z" fill="#009379"/>
<path d="M101.125 15.3158H114.875" stroke="#009379" stroke-width="1.5" stroke-linecap="round" stroke-linejoin="round"/>
<path d="M109.25 9.6908L114.875 15.3158L109.25 20.9408" stroke="#009379" stroke-width="1.5" stroke-linecap="round" stroke-linejoin="round"/>
</svg>
