<svg width="33" height="33" viewBox="0 0 33 33" fill="none" xmlns="http://www.w3.org/2000/svg">
<path fill-rule="evenodd" clip-rule="evenodd" d="M0.666656 16.4995C0.666656 7.66296 7.8301 0.499512 16.6667 0.499512C25.5032 0.499512 32.6667 7.66296 32.6667 16.4995C32.6667 25.3361 25.5032 32.4995 16.6667 32.4995C7.8301 32.4995 0.666656 25.3361 0.666656 16.4995Z" fill="#E5F4F2"/>
<path fill-rule="evenodd" clip-rule="evenodd" d="M16.1875 13.5046L16.221 14.0582L15.6614 13.9905C13.6246 13.7306 11.8451 12.8493 10.3342 11.3692L9.59556 10.6347L9.40531 11.1771C9.00241 12.386 9.25981 13.6628 10.0992 14.5215C10.5469 14.996 10.4461 15.0638 9.67391 14.7814C9.40531 14.691 9.17028 14.6232 9.1479 14.6571C9.06956 14.7362 9.33816 15.7643 9.5508 16.1711C9.84178 16.736 10.4349 17.2897 11.0841 17.6173L11.6324 17.8772L10.9833 17.8885C10.3566 17.8885 10.3342 17.8998 10.4014 18.1371C10.6252 18.8715 11.5093 19.6511 12.4942 19.9901L13.1881 20.2273L12.5837 20.5889C11.6884 21.1086 10.6364 21.4024 9.58437 21.425C9.08075 21.4363 8.66666 21.4815 8.66666 21.5154C8.66666 21.6284 10.032 22.2611 10.8266 22.5097C13.2105 23.2441 16.042 22.9277 18.1684 21.6736C19.6793 20.781 21.1901 19.0071 21.8952 17.2897C22.2757 16.3745 22.6562 14.7023 22.6562 13.9001C22.6562 13.3803 22.6898 13.3125 23.3166 12.6911C23.6859 12.3295 24.0328 11.9341 24.1 11.8211C24.2119 11.6064 24.2007 11.6064 23.6299 11.7985C22.6786 12.1375 22.5443 12.0923 23.0144 11.5838C23.3613 11.2223 23.7754 10.5669 23.7754 10.3749C23.7754 10.341 23.6075 10.3975 23.4173 10.4992C23.2158 10.6121 22.7682 10.7816 22.4324 10.8833L21.8281 11.0754L21.2797 10.7025C20.9775 10.4992 20.5522 10.2732 20.3284 10.2054C19.7576 10.0472 18.8846 10.0698 18.3698 10.2506C16.9709 10.759 16.0867 12.0697 16.1875 13.5046Z" fill="#2D2D2D"/>
</svg>
